<?xml version="1.0" standalone="no"?>
<!DOCTYPE svg PUBLIC "-//W3C//DTD SVG 20010904//EN"
 "http://www.w3.org/TR/2001/REC-SVG-20010904/DTD/svg10.dtd">
<svg version="1.0" xmlns="http://www.w3.org/2000/svg"
 width="920.000000pt" height="1006.000000pt" viewBox="0 0 920.000000 1006.000000"
 preserveAspectRatio="xMidYMid meet">

<g transform="translate(0.000000,1006.000000) scale(0.100000,-0.100000)"
fill="#000000" stroke="none">
<path d="M4285 8134 c-16 -2 -86 -11 -155 -19 -990 -119 -1672 -575 -2203
-1471 -110 -187 -166 -306 -223 -478 -99 -301 -139 -559 -138 -896 1 -299 29
-532 109 -915 19 -93 33 -170 31 -172 -5 -5 -75 116 -121 207 -149 297 -232
626 -266 1055 -11 145 -6 668 7 775 4 25 4 43 1 40 -9 -9 -56 -330 -73 -500
-19 -199 -22 -586 -5 -755 94 -924 489 -1625 1326 -2348 48 -42 18 -31 -100
34 -197 109 -429 288 -683 526 -67 63 -122 112 -122 109 0 -6 121 -184 185
-271 404 -549 933 -918 1640 -1144 253 -81 682 -175 865 -190 73 -6 81 -9 60
-18 -38 -16 -124 -84 -156 -123 -16 -19 -22 -30 -14 -25 8 5 42 25 75 46 75
47 199 89 261 89 l48 0 -80 -82 c-97 -101 -134 -148 -166 -213 -28 -55 -49
-138 -47 -188 l1 -32 9 38 c22 94 107 200 233 288 125 88 404 174 519 160 13
-2 -75 -111 -128 -160 -48 -45 -128 -86 -227 -117 -95 -29 -58 -27 68 5 108
27 336 105 381 129 16 9 19 4 29 -58 15 -89 52 -167 105 -224 23 -26 44 -45
45 -43 2 2 -5 39 -16 82 -31 123 -27 178 20 273 70 140 298 364 433 425 31 14
57 23 57 19 0 -4 -7 -32 -15 -62 -22 -82 -19 -82 30 0 24 41 50 82 57 91 10
13 127 78 191 107 4 2 3 -8 -3 -23 -5 -14 -10 -54 -9 -88 l0 -62 23 51 c48
105 135 171 297 225 72 25 113 32 174 33 44 1 86 5 93 9 7 5 21 26 32 47 11
22 34 55 51 75 18 20 30 37 28 39 -2 2 -35 -2 -74 -9 -105 -20 -217 -28 -274
-20 -52 7 -65 18 -33 28 9 3 89 33 177 66 88 34 178 64 200 67 51 6 85 -12
107 -55 l17 -34 7 27 c11 47 -2 114 -30 151 -57 75 -122 82 -260 31 -143 -53
-387 -103 -430 -87 -16 6 -14 11 20 40 35 31 41 33 96 29 73 -5 60 3 -73 48
-134 45 -164 48 -319 29 -235 -27 -699 -74 -855 -85 -82 -6 -151 -12 -152 -14
-3 -3 160 -25 292 -41 22 -2 132 -4 244 -5 123 0 201 -4 195 -9 -13 -13 -279
-67 -404 -83 -58 -7 -207 -13 -333 -13 -215 0 -254 -6 -144 -20 27 -4 46 -9
44 -12 -8 -7 -243 24 -367 48 -58 12 -134 34 -169 50 -94 42 -225 134 -315
219 l-80 75 44 -60 c24 -33 71 -88 104 -122 33 -35 57 -63 53 -63 -15 0 -175
64 -273 110 -233 109 -469 269 -655 446 -57 55 -99 92 -93 84 64 -85 179 -250
190 -273 9 -16 13 -31 10 -34 -10 -10 -154 107 -222 181 -123 132 -245 303
-406 571 -43 72 -78 126 -78 121 0 -4 31 -105 70 -224 38 -118 68 -217 66
-219 -2 -2 -36 44 -75 103 -267 395 -424 1029 -404 1629 3 77 3 138 -1 134 -3
-3 -17 -52 -32 -110 -25 -98 -27 -121 -31 -391 -3 -159 -8 -288 -12 -288 -4 0
-16 69 -27 153 -26 211 -27 598 0 742 35 190 95 393 167 559 49 114 29 94 -58
-60 -195 -341 -287 -735 -306 -1299 l-2 -70 -13 55 c-102 429 -102 928 -1
1350 253 1059 1068 1800 2151 1955 176 25 442 38 538 25 443 -57 858 -212
1214 -451 557 -373 967 -987 1100 -1649 62 -307 64 -713 5 -1005 -116 -579
-445 -1074 -928 -1396 -125 -83 -365 -203 -507 -252 -257 -90 -476 -127 -795
-134 -372 -9 -613 22 -830 107 -574 225 -990 570 -1285 1066 -37 63 -69 114
-72 114 -7 0 125 -246 183 -339 249 -403 606 -729 1050 -962 189 -99 263 -126
448 -164 790 -159 1454 -31 2013 387 299 222 541 500 728 836 151 269 247 560
298 897 20 135 17 539 -5 685 -85 551 -300 1057 -624 1460 -95 119 -368 390
-493 490 -382 304 -804 490 -1273 561 -126 19 -479 34 -552 23z m1770 -5594
c14 -16 16 -23 7 -32 -9 -9 -18 -7 -39 8 -15 11 -29 26 -31 32 -6 20 44 14 63
-8z"/>
<path d="M5076 7203 c-44 -67 -59 -143 -54 -270 l4 -114 -38 43 c-35 40 -136
169 -166 214 -7 10 -9 12 -5 4 6 -12 4 -13 -9 -3 -8 7 -23 31 -33 53 -10 22
-20 38 -22 36 -13 -13 107 -229 182 -327 l35 -46 -82 -5 c-104 -6 -187 -40
-249 -105 -52 -53 -34 -52 58 3 101 61 214 81 286 51 42 -18 97 -65 97 -83 0
-8 -13 0 -30 20 -17 19 -47 40 -67 47 -55 18 -148 6 -223 -29 -105 -48 -117
-65 -27 -37 49 16 102 25 142 25 60 0 66 -2 111 -41 39 -33 53 -40 76 -35 20
4 28 2 28 -8 0 -24 -30 -27 -71 -7 -21 11 -39 16 -39 12 0 -17 49 -51 102 -71
58 -22 88 -49 88 -82 0 -23 -7 -23 -48 2 -44 27 -50 25 -22 -5 13 -14 30 -25
37 -25 8 0 25 -11 38 -25 22 -21 25 -33 25 -97 l-1 -73 -25 30 c-15 17 -23 24
-20 18 15 -28 -6 -11 -24 20 -22 35 -25 33 -10 -7 13 -36 -6 -34 -58 4 -23 17
-42 27 -42 24 0 -4 -10 1 -21 12 -22 19 -22 19 -11 -2 18 -34 117 -119 165
-142 50 -24 137 -38 164 -27 15 5 13 9 -14 20 -36 15 -41 27 -19 47 11 10 10
19 -5 52 -19 42 -17 58 3 38 7 -7 37 -52 68 -102 52 -84 225 -320 235 -320 3
0 -11 22 -31 50 -19 27 -33 54 -29 60 4 6 1 9 -6 8 -6 -2 -14 3 -17 11 -3 10
0 11 9 5 8 -4 1 10 -15 32 -17 21 -40 53 -52 69 -12 17 -41 68 -64 115 -23 47
-51 97 -61 111 -10 14 -21 38 -25 53 -7 28 -7 28 19 12 14 -9 27 -26 30 -36 3
-11 12 -20 21 -20 9 0 16 -8 16 -19 0 -11 9 -22 19 -26 11 -3 23 -15 26 -25 5
-16 10 -17 30 -10 27 10 24 17 45 -90 14 -73 30 -98 24 -39 -3 34 -2 38 5 19
7 -20 9 -14 10 31 1 42 7 65 26 93 14 20 25 41 25 46 0 5 -19 21 -42 37 -51
34 -110 116 -139 192 -29 77 -23 185 14 257 37 73 20 91 -26 28 -31 -42 -43
-67 -74 -154 -8 -22 -41 55 -49 113 -5 34 -10 45 -16 35 -9 -13 -5 21 9 66 3
11 1 16 -5 12 -13 -8 -32 -95 -32 -150 0 -62 -11 -63 -32 -4 -32 91 -17 175
42 250 42 52 19 57 -29 8 -39 -41 -81 -129 -81 -173 0 -41 -17 -51 -23 -15 -4
18 -14 58 -22 88 -22 80 -19 162 10 245 4 13 1 12 -9 -5 -18 -29 -20 -23 -6
15 5 14 14 24 18 21 4 -2 8 4 8 15 0 26 -2 25 -30 -18z m414 -1153 c6 -11 8
-20 6 -20 -3 0 -10 9 -16 20 -6 11 -8 20 -6 20 3 0 10 -9 16 -20z"/>
<path d="M3990 6979 c-36 -12 -67 -23 -69 -25 -2 -2 14 -23 35 -46 22 -24 52
-60 68 -81 25 -33 27 -40 15 -51 -8 -8 -79 -55 -158 -105 -80 -50 -139 -91
-132 -91 7 0 39 7 70 15 31 8 115 24 186 36 106 17 152 20 251 15 138 -8 143
-6 151 68 11 91 -60 211 -151 258 -61 32 -181 35 -266 7z"/>
<path d="M5271 6884 c0 -11 3 -14 6 -6 3 7 2 16 -1 19 -3 4 -6 -2 -5 -13z"/>
<path d="M4778 6600 c-107 -13 -175 -31 -245 -66 l-65 -33 -36 23 c-59 38
-108 49 -181 42 -65 -6 -104 -22 -277 -114 -89 -48 -187 -79 -313 -101 -72
-12 -97 -20 -99 -32 -4 -24 90 -117 144 -140 25 -12 75 -24 110 -27 l64 -7
-109 -75 c-123 -84 -127 -91 -116 -193 9 -74 29 -127 48 -127 19 0 266 153
387 240 54 38 102 70 105 70 19 0 -72 -103 -152 -173 -174 -152 -370 -275
-544 -341 -35 -14 -86 -34 -114 -47 -85 -38 -113 -41 -131 -14 -23 36 -53 39
-65 7 -37 -97 100 -347 179 -327 14 3 118 72 231 152 320 228 331 235 331 228
0 -3 -11 -21 -23 -38 -96 -129 -178 -355 -212 -584 -22 -148 -38 -514 -27
-606 13 -104 85 -286 112 -284 33 2 55 139 65 403 11 263 51 538 90 614 16 31
17 31 37 13 18 -16 20 -27 15 -88 -3 -57 -13 -87 -51 -164 -40 -82 -46 -103
-46 -157 0 -65 20 -188 39 -237 7 -19 8 -34 1 -47 -17 -32 16 -110 103 -246
46 -71 97 -153 113 -181 26 -48 32 -53 62 -53 25 0 42 8 62 30 39 42 113 188
107 211 -8 29 -1 24 45 -38 88 -121 196 -217 305 -272 71 -35 71 -23 1 24 -37
24 -91 68 -121 98 -52 50 -102 128 -95 148 2 5 65 -33 140 -84 147 -101 220
-138 314 -161 75 -18 155 -26 148 -15 -3 5 -15 9 -27 9 -12 0 -53 8 -90 19
-61 17 -119 50 -197 111 l-25 19 125 -5 c195 -9 287 13 444 109 99 60 209 154
203 172 -3 6 -1 18 5 26 7 11 8 9 3 -6 -5 -15 -3 -17 6 -8 13 13 6 43 -11 43
-5 0 -16 -15 -24 -34 -15 -37 -126 -135 -191 -168 -115 -60 -287 -95 -411 -84
-81 6 -211 33 -218 45 -3 4 57 21 132 38 168 38 287 81 271 98 -3 3 -32 -6
-64 -20 -90 -40 -180 -58 -295 -58 -79 -1 -115 3 -145 16 -39 17 -75 44 -75
56 0 3 51 6 113 7 117 1 176 16 256 64 50 31 32 34 -34 5 -67 -30 -165 -55
-215 -55 -79 1 -174 51 -218 115 -30 44 -49 312 -26 358 22 42 102 119 146
140 59 28 168 15 168 -19 0 -20 -49 -37 -89 -30 -53 8 -24 -11 44 -29 33 -9
106 -19 163 -22 56 -3 102 -10 102 -14 0 -17 -43 -30 -113 -36 l-72 -6 53 -24
c355 -156 728 -43 823 250 30 92 24 248 -11 317 -53 104 -112 177 -175 216
l-30 19 29 -35 c41 -50 65 -108 66 -160 1 -44 1 -44 15 -20 l14 25 2 -30 c2
-62 -3 -101 -21 -142 -17 -38 -17 -41 -2 -36 10 4 29 15 44 25 35 24 39 23 27
-11 -14 -41 -77 -111 -113 -127 -30 -13 -27 -13 44 -14 45 0 70 -4 65 -9 -17
-16 -117 -41 -162 -41 -24 0 -43 -4 -43 -10 0 -5 4 -10 9 -10 11 0 101 -79
101 -90 0 -4 -33 10 -72 30 -109 57 -172 64 -117 14 27 -24 49 -67 49 -95 0
-20 -2 -19 -35 9 -49 44 -146 108 -172 114 -20 5 -18 0 17 -53 41 -59 65 -109
53 -109 -4 0 -50 35 -102 78 -114 93 -161 126 -161 115 0 -4 14 -28 30 -53 50
-75 34 -74 -33 3 -87 100 -170 155 -127 85 29 -48 24 -56 -12 -21 -48 44 -99
80 -133 93 l-30 11 38 -38 c46 -48 47 -58 5 -33 -47 27 -124 42 -177 34 l-45
-7 49 -13 c28 -7 53 -13 58 -14 4 0 7 -4 7 -9 0 -4 -33 -11 -72 -14 -40 -3
-82 -9 -93 -14 -17 -6 -15 -9 15 -13 l35 -5 -36 -22 c-20 -13 -38 -23 -41 -23
-7 0 10 115 27 181 18 69 66 206 93 266 l18 42 42 -64 c23 -35 56 -75 73 -89
l31 -26 -29 0 c-26 -1 -27 -2 -10 -15 22 -16 151 -40 167 -30 5 3 10 13 10 21
0 26 100 21 150 -8 19 -11 43 -22 54 -24 18 -3 18 -3 0 17 -30 34 -88 58 -161
69 -37 5 -71 10 -75 10 -15 0 35 71 65 92 17 12 51 28 76 34 l46 13 -53 0
c-38 1 -67 -6 -103 -25 -28 -14 -54 -22 -57 -19 -4 4 1 11 10 16 10 5 15 16
12 24 -9 23 32 71 81 95 34 17 55 20 87 16 42 -7 42 -6 18 8 -35 21 -86 20
-134 -4 -56 -27 -137 -105 -130 -124 3 -8 -3 -19 -15 -26 -25 -13 -26 -8 -10
91 8 46 16 69 25 69 9 0 14 13 14 38 0 30 -13 57 -55 122 -30 46 -55 90 -55
97 0 8 -4 12 -9 8 -6 -3 -14 3 -20 12 -9 15 -10 12 -11 -18 0 -20 -5 -51 -12
-70 l-12 -34 -13 40 c-13 38 -13 36 -8 -37 3 -43 12 -96 20 -119 8 -23 15 -51
15 -63 -1 -20 -2 -20 -15 4 -8 14 -15 21 -15 15 0 -5 -8 -1 -16 10 -15 19 -15
19 -9 -10 4 -16 9 -38 12 -47 4 -16 -65 -147 -77 -148 -3 0 -13 32 -22 72 -31
127 -94 188 -196 188 -75 0 -132 -25 -206 -90 -37 -33 -69 -60 -71 -60 -15 0
65 107 110 148 59 54 227 145 335 182 36 12 73 26 83 31 13 7 17 5 18 -8 0
-13 3 -11 11 7 l11 25 7 -30 c5 -27 13 23 23 162 3 29 13 20 28 -25 20 -63 98
-205 135 -247 20 -22 33 -31 30 -21 -6 17 -5 17 11 5 17 -13 17 -13 2 11 -15
24 -60 140 -54 140 1 0 36 -39 76 -86 111 -129 261 -244 319 -244 19 0 14 9
-32 63 -66 75 -102 126 -95 133 3 3 22 -3 44 -14 21 -11 88 -34 148 -52 116
-34 196 -69 232 -103 13 -11 26 -18 29 -14 12 11 -92 102 -169 147 -42 25 -77
48 -77 51 0 8 105 29 147 29 18 0 33 4 33 9 0 5 -62 12 -137 16 -197 10 -338
55 -461 144 -76 56 -143 181 -157 291 l-6 45 19 -56 c24 -71 153 -259 178
-259 4 0 -3 11 -15 24 -12 13 -21 29 -19 37 2 7 -3 13 -11 14 -8 0 -16 6 -19
14 -3 9 0 11 7 6 9 -5 9 -2 0 13 -7 12 -16 19 -19 17 -3 -2 -6 4 -7 13 0 9 -8
38 -17 65 -18 56 -11 63 11 10 37 -92 159 -228 212 -238 19 -3 20 0 16 48 -3
35 -1 46 5 32 6 -15 9 -6 9 35 1 30 6 62 11 70 9 13 12 12 25 -4 21 -27 28
-75 23 -156 -2 -38 -2 -68 -1 -66 2 2 10 23 18 47 l15 44 -6 -40 c-9 -64 6
-34 16 33 7 39 7 75 1 99 -6 21 -14 55 -19 76 -12 47 3 46 35 -3 30 -43 43
-92 44 -165 l1 -60 13 55 c11 50 12 53 18 25 3 -16 4 4 2 46 -3 75 -19 123
-52 161 -9 10 -13 24 -9 33 4 11 -3 17 -25 22 -29 6 -48 27 -35 40 13 14 101
-33 155 -83 44 -41 57 -48 56 -33 -2 29 -72 96 -140 134 -33 19 -66 43 -73 55
-12 20 -52 28 -52 11 0 -5 -11 -12 -24 -15 -21 -5 -24 -11 -23 -52 0 -29 -5
-51 -14 -58 -10 -8 -13 -29 -11 -80 5 -91 -8 -104 -53 -53 -38 44 -60 118 -53
182 4 32 2 42 -8 41 -7 -1 -17 -5 -20 -9 -14 -14 -30 -7 -31 15 -2 25 -20 39
-40 31 -12 -5 -11 1 2 33 17 41 62 111 78 121 12 8 27 -16 27 -46 0 -20 2 -21
15 -11 8 7 15 9 15 4 0 -4 14 14 30 40 39 61 124 146 147 147 16 0 16 1 -2 8
-26 10 -62 -3 -147 -52 -92 -53 -165 -121 -211 -198 -37 -60 -42 -49 -9 16 45
89 185 234 257 266 l40 18 -35 -1 c-19 0 -65 -4 -102 -8z m-201 -437 c-3 -10
-5 -4 -5 12 0 17 2 24 5 18 2 -7 2 -21 0 -30z m-127 -39 c0 -14 -4 -23 -9 -20
-5 3 -7 15 -4 26 7 28 13 25 13 -6z m0 -163 c0 -26 3 -76 7 -111 5 -52 4 -62
-8 -55 -7 5 -51 15 -98 21 -46 7 -88 17 -94 23 -6 6 13 26 54 58 35 26 77 62
94 79 16 17 33 32 38 33 4 0 7 -21 7 -48z m-253 -637 c14 -23 18 -59 21 -236
l4 -209 -33 -47 c-55 -78 -141 -182 -150 -182 -4 0 1 26 12 57 20 60 63 133
77 133 17 0 54 82 55 124 2 49 -23 92 -102 172 l-49 49 24 47 c31 62 81 118
105 118 10 0 26 -12 36 -26z m18 -861 c-7 -179 -16 -246 -36 -259 -12 -7 -169
148 -169 167 0 10 201 269 209 269 2 0 0 -80 -4 -177z"/>
<path d="M5346 5562 c158 -71 280 -179 337 -299 31 -65 32 -73 32 -189 l0
-121 -44 -89 c-70 -142 -181 -242 -335 -301 l-61 -24 61 5 c79 7 181 44 233
85 26 21 41 28 41 19 0 -35 -33 -121 -66 -170 -27 -39 -30 -47 -12 -30 14 12
27 20 30 16 11 -11 99 111 138 191 53 110 73 211 68 337 l-4 101 28 -33 c15
-19 39 -56 53 -84 24 -48 25 -49 19 -16 -4 26 -3 31 5 20 15 -21 13 -2 -5 61
-36 122 -107 259 -168 323 -38 41 -28 45 38 16 62 -26 66 -9 9 35 -73 56 -218
122 -327 150 -126 32 -146 31 -70 -3z"/>
<path d="M5401 4230 c-50 -33 -102 -62 -116 -66 -14 -3 -25 -11 -25 -16 0 -25
71 10 161 80 19 15 46 35 60 44 13 9 21 17 18 17 -4 1 -48 -26 -98 -59z"/>
<path d="M5284 4243 l49 -4 -34 -35 c-18 -19 -28 -34 -23 -34 10 0 34 24 63
63 12 16 9 17 -45 15 l-59 -2 49 -3z"/>
</g>
</svg>
